<svg version="1.2" xmlns="http://www.w3.org/2000/svg" viewBox="0 0 1539 519" width="1539" height="519"><style>.a{fill:#ee334b}</style><path fill-rule="evenodd" class="a" d="m627.5 87.4l-0.2-1.4-0.5-0.9-0.5-0.5-1-0.5-2.7-0.4-0.4 0.1h-1.5l-2.9 0.4-4.7 1.2-2.9 1-3.1 1.3-2 0.9-3.2 1.7-3.7 2.4-0.4 0.3-1.7 1.3-0.3 0.3-0.5 0.3-0.4 0.5-0.5 0.2-0.4 0.5-0.4 0.3-0.7 0.7-0.8 0.6-1.3 1.4-45 206.8-0.6 1.8-0.6 1-0.4 0.4-0.3 0.4-1 0.8-1.2 0.2-0.9-0.2-0.7-0.6-0.6-0.8-0.8-2-0.1-0.9-73.4-212.8-0.7-1.9-1.2-2.9-0.6-0.9-1.1-1-0.6-0.3-1.3-0.2h-0.6l-1.1 0.2-1.7 0.6-19.3 9.4-35.1 17.5-0.9 0.6-4.1 2-0.9 0.5-4.3 2.1-0.9 0.6-4.5 2.2-2.2 1.4-1 1-0.7 1.7-0.6 2.3v2l0.6 2 0.6 1.2 0.4 0.5 0.3 0.4 0.4 0.2 0.5 0.5 1.4 1 2.5 0.9 2.9 0.6h5l0.5-0.1h9.2l0.5 0.1h0.8l0.6 0.1h0.6l2.3 0.5 1.8 0.4 2.5 1 2 1.3 0.5 0.6 0.5 0.5 1.2 1.8 43.8 124.3 1.4 4 0.1 0.7 42.3 118.5 1.8 4.8 1.1 1.7 0.9 0.8 0.5 0.4 0.6 0.4 1.7 0.6 2.5 0.4h1l0.5 0.1h1.4l0.5 0.2h1l0.8 0.2 0.2 0.4 0.1 1.3-0.2 0.5v0.6l-0.1 0.5v0.7l-0.1 0.5v0.6l-0.1 0.5v0.7l-0.1 0.5v0.6l-0.2 0.5v0.7 0.5 0.6l-0.9 6.7-1.6 9-2.2 10.8-1.8 6.8-1.1 3-1.8 4.6-0.3 0.4-0.8 1.6-1.8 3-1.9 2.5-2.3 2.4-3.1 2.3-0.6 0.3-0.9 0.5-0.6 0.3-0.5 0.3-3.1 1.2-3.9 1.1h-1.8l-0.5 0.1h-0.6l-0.5-0.1-1.3-0.1-1-0.2-2.2-0.8-1.9-1-2.3-1.7-2.1-2.1-1.9-2.3-0.3-0.4-1-1.5-0.4-0.4-0.4-1-0.9-1.3-1.3-2.5-2.3-5.2-2.2-6.1-3.2-11.5-0.8-2.5-0.7-1.5-1.3-1.3-1-0.5-1.6-0.3-0.3 0.2h-1.2l-1.1 0.1-7.5 1.8-7 2-6.7 2.3-6.3 2.6-6.9 3.1-5.1 2.7-4.7 2.7-2.3 1.5-0.4 0.4-0.7 0.5-1.6 1.7-0.5 0.5-0.9 1.4-0.9 1.6-0.7 1.9-0.6 2.9v4.6l0.6 3.5 1.8 7.7 1.7 5.3 1.8 4.6 2.1 4.6 2.1 4.1 0.4 0.5 0.2 0.6 1.1 1.7 0.8 1.3 2.1 3.2 0.4 0.3 0.4 0.8 2.2 2.7 0.3 0.3 0.2 0.5 2.2 2.3 1.2 1.2 3 2.8 0.4 0.3 2.8 2.2 0.3 0.3 3.8 2.6 0.6 0.3 0.5 0.4 0.6 0.2 0.5 0.3 0.6 0.3 0.5 0.4 3.2 1.4 4.2 1.6 4.7 1.2 7.3 1.1h1.4l0.5 0.1h1.4l0.4 0.1h1.5l0.5 0.1h1.6l0.3-0.1h4.6l0.5-0.1h0.9l0.5-0.1h0.9l0.5-0.2h0.9l5.5-0.9 5.6-1.5 0.8-0.3 3.2-1.1 5-2.3 3.7-2.2 2.6-1.7 0.3-0.3 1.8-1.3 3.5-2.9 3.9-3.9 2.3-2.8 0.6-0.4 0.2-0.5 0.4-0.4 2.7-3.8 0.4-0.3 3-4.9 1.3-2.2 1.6-3 1.9-3.9 0.5-1.2 1.1-2.6 2.8-8.1 98.7-375.9z"/><path class="a" d="m1084.8 375.4l10.6-6.4 4.9-3.7 0.3-0.3 0.5-0.3 0.4-0.4 0.5-0.3 2.3-2.2 1.5-1.4 0.3-0.5 0.7-0.6 1.6-1.8 0.5-0.5 1.6-2.1 0.3-0.4 0.7-0.9 0.3-0.4 3.8-6 2.5-5.4 2.2-5.7 2.2-7.7 2.4-10.2 1.8-9.4 1.9-12.3v-0.6l0.3-1.4v-0.7l0.1-0.5v-0.6l0.1-0.5v-0.6l0.1-0.5v-0.6l0.3-1.4v-0.6l0.1-0.5v-0.6l0.1-0.5v-1l0.2-0.5v-0.9l0.1-0.5v-1l0.1-0.5v-0.9l0.1-0.5v-1l0.1-0.5v-0.9l0.1-0.5v-1.1l0.2-0.5v-1.7l0.1-0.5v-1.7l0.1-0.5v-1.7l0.1-0.4v-1.7l0.2-0.5v-2.7l0.1-0.5v-3.5l0.1-0.5v-3.5l0.1-0.5v-17.8l-0.1-0.5v-4.4l-0.1-0.5v-3l-0.1-0.5v-2.9l-0.2-0.5v-3l-0.1-0.5v-2.9l-0.1-0.5v-3.1l-0.1-0.4v-1.6l-0.2-0.5v-1.6l-0.1-0.5v-1.5l-0.1-0.5v-1.6l-0.1-0.5v-1.4l-0.1-0.6v-1.5l-0.1-0.5v-1.6l-0.2-0.5v-1.5l-0.1-0.5v-1.6l-0.1-0.5v-1.4l-0.1-0.5v-1.1l-0.2-0.5v-1.2l-0.1-0.5v-1.1l-0.1-0.5v-1.1l-0.1-0.5v-1.2l-0.1-0.4v-1.2l-0.2-0.4v-1.1l-0.1-0.5v-1.2l-0.1-0.5v-1.1l-0.1-0.5v-1.2l-0.2-0.5v-1.1l-0.1-0.5v-1.1l-0.1-0.4v-1l-0.1-0.5v-1l-0.1-0.4v-1l-0.1-0.5v-1l-0.2-0.4v-1l-1-9.2-0.3-0.8-0.3-2.5-1.1-6.6-1.6-7.1-1.6-5.5-2-6.1-2-4.6-1.9-4.1-0.6-0.9-0.8-1.6-1.6-2.7-0.9-1.5-2-2.8-0.3-0.4-0.6-1-0.4-0.3-0.6-1-3.9-4.6-4.7-4.9-4.8-4.1-0.3-0.3-1.7-1.3-0.4-0.3-2.1-1.6-0.4-0.3-6.3-4.3-3.3-1.5-3.5-1-4.5-0.9h-1.4l-0.5-0.1h-3.5l-0.4 0.1h-1.5l-1.7 0.3-0.7 0.2h-0.9l-3.6 0.8-1.1 0.4-1.8 0.5-5 1.8-2.9 1.3-1 0.4-0.9 0.6-1.6 0.7-1 0.6-1.8 0.9-1 0.6-0.6 0.3-3.1 1.9-1.8 1-5 3.1-16 10.4-10.6 8.3-0.4 0.2-3.6 3.4-0.8 0.8-0.3 0.4-1.4 1.4-0.3 0.5-1.2 1.1-3.4 4.1-0.3 0.4-2.7 3.6-0.3 0.3-2.3 3.5-0.3 0.3-3.9 6.4-0.3 0.7-0.3 0.4-0.3 0.7-0.6 0.8-0.3 1-0.4 0.5-0.3 0.6-1.4 2.8-2.2 4.9-2.1 5.3-1.6 4.4-2.1 6.2-3.2 11.9-2.5 11.6-2.1 13.6v0.6l-0.1 0.5v0.6l-0.3 1.4v0.6l-0.2 1.5v0.6l-0.1 0.5v0.6l-0.3 1.5v0.5l-0.2 1.5v1l-0.2 0.5v0.9l-0.1 0.6v0.9l-0.1 0.5v1l-0.1 0.6v0.9l-0.1 0.5v1.1l-0.2 0.5v1l-0.1 0.5v0.9l-0.1 0.5v1.8l-0.1 0.5v1.8l-0.2 0.5v1.9l-0.1 0.6v1.9l-0.1 0.4v2l-0.1 0.5v3.9l-0.1 0.5v4.2l-0.2 0.4v11.1l-0.1 0.6v3.6l0.1 0.5v6.5l0.2 0.5v6.5l0.1 0.5v6.7l0.1 0.5v3l0.1 0.5v2.9l0.1 0.5v2.8l0.2 0.5v2.6l0.1 0.5v1.2l0.1 0.5v1.2l0.1 0.5v1.1l0.2 0.5v1.2l0.1 0.5v1.2l0.1 0.5v1.2l1.2 10.2 0.9 5.8 1.3 6.4 1.8 6.4 1.7 5.4 2.1 5.6 2.5 6.1 2.6 5.7 0.6 0.9 1.1 2.3 0.6 0.9 0.3 0.7 3.3 6.2 0.5 0.9 0.3 0.7 2.8 4.3 1.9 2.5 0.5 0.4 0.3 0.5 2.2 2.3 1.7 1.8 2.2 1.9 0.4 0.3 0.5 0.3 0.4 0.4 4.5 3 2.4 1.2 0.9 0.6 4.1 1.7 5.9 2 4.5 1.1 1 0.1 0.5 0.1h0.7l0.5 0.1h0.9l0.4 0.1h1.2l0.2-0.1h2.4l3.3-0.5 3.2-0.9 4.5-1.6 3.9-1.5 5.6-2.2 6.9-3.1 8.5-4.1 0.9-0.5 1.1-0.6 1-0.5 0.6-0.3 10.8-6.1m-0.2-66.8l-0.1 0.8-0.1 0.8-2.3 11.6-2 8.5-2.5 8.3-2.3 6.5-2.5 5.9-0.6 1-0.5 1.1-0.6 1-0.5 1.1-1.8 2.9-0.3 0.3-1.3 1.8-0.6 0.4-0.2 0.5-1.6 1.4-1 0.9-0.7 0.4-0.4 0.3-2 1-1.8 0.4h-0.7l-0.2 0.2-0.6-0.2h-1.1l-2-0.6-1.5-0.9-1.7-1.2-0.5-0.6-0.5-0.2-0.7-0.8-1.4-1.6-0.2-0.4-1.3-1.7-1.5-2.4-0.3-0.6-0.3-0.5-0.6-1.4-0.6-0.9-1.3-2.9-2.3-5.7-2.5-7.2-2.3-8.5-2-9.1-2.1-11.1v-0.9l-0.3-1.5-0.1-0.8-0.1-0.7-0.1-0.9-0.2-0.7-0.1-0.9-0.2-0.7-1.4-11.6v-0.9l-0.1-0.4v-0.8l-0.1-0.5v-0.8l-0.1-0.5v-0.9l-0.2-0.4v-0.8l-0.1-0.4v-0.9l-0.1-0.5v-0.7l-0.1-0.5v-0.8l-0.1-0.5v-0.9l-0.2-0.5v-1.3l-0.1-0.5v-1.3l-0.1-0.5v-1.4l-0.2-0.5v-1.4-0.4-1.4l-0.2-0.5v-1.3l-0.1-0.5v-2l-0.1-0.5v-2.6l-0.1-0.4v-2.7l-0.2-0.5v-2.7l-0.1-0.5v-5.8l-0.1-0.5v-15.3l0.1-0.5v-5.9l0.1-0.5v-2.5l0.2-0.5v-2.7l0.1-0.5v-2.6l0.1-0.4v-2.1l0.1-0.4v-1.4l0.2-0.5v-1.4-0.4-1.3l0.2-0.5v-1.5l0.1-0.5v-1.3l0.1-0.5v-1.3l0.2-0.5v-0.9l0.1-0.4v-0.9l0.1-0.5v-0.7l0.1-0.5v-0.8l0.1-0.6v-0.8l0.2-0.5v-0.7l0.1-0.5v-0.8l0.1-0.5v-0.8l0.1-0.6v-0.7l0.4-2.4v-0.6l1.5-10.9 1.2-8.3 2.2-10.9 2.2-9.1 2.2-7.4 2.3-6.6 2.6-6.2 2.8-5.3 2-2.8 0.3-0.4 0.6-0.8 0.6-0.5 0.3-0.5 1.3-1.2 1.1-1 0.7-0.4 0.4-0.3 2.4-1.1 1.2-0.3h2.7l2.2 0.6 1.7 1 1.3 1 0.3 0.3 1.8 1.6 0.5 0.7 0.4 0.5 0.3 0.4 1.3 1.7 1.7 2.8 0.5 1.1 0.6 0.9 0.5 1.2 0.6 0.9 3 7.2 0.7 2.1 0.7 1.8 1.4 4.6 2.2 8.1 2.1 9.2 1.9 10.4v0.9l0.2 0.6 0.1 0.9 0.1 0.7 0.1 0.9 0.3 1.5 0.1 0.8 0.2 0.7 1.5 12.9v0.7l0.1 0.5v0.8l0.2 0.5v0.9l0.1 0.5v0.7l0.1 0.5v0.8l0.1 0.5v0.8l0.1 0.6v0.7l0.2 0.4v0.9l0.1 0.5v1.3l0.1 0.4v1.3l0.2 0.5v1.5l0.1 0.5v1.3l0.1 0.5v1.3l0.1 0.5v1.4l0.1 0.5v1.6l0.1 0.5v2.7l0.2 0.5v2.5l0.1 0.5v2.6l0.1 0.6v4.1l0.1 0.5v8.8l0.2 0.5v1.7l-0.2 0.5v8.9l-0.1 0.5v4l-0.1 0.5v2.7l-0.1 0.5v2.5l-0.2 0.5v2.7l-0.1 0.5v1.7l-0.1 0.5v1.3l-0.1 0.5v1.3l-0.1 0.5v1.4l-0.1 0.4v1.5l-0.2 0.5v1.3l-0.1 0.5v1.2l-0.1 0.5v0.9l-0.2 0.5v0.6l-0.1 0.6v0.8l-0.1 0.5v0.8l-0.1 0.5v0.7l-0.1 0.5v0.9l-0.2 0.4v0.9l-0.1 0.5v0.7l-0.1 0.5v0.7l-0.3 2.5v0.6l-1.6 11.4-0.2 0.7-0.1 0.8-0.1 0.8-0.1 0.8-0.3 1.5z"/><path fill-rule="evenodd" class="a" d="m1239.2 152l-2.6 4.3-2.6 4.7-1.6 3.3-0.6 2-0.7 3.4-1 5.8v0.6l-0.1 1.5v0.6l-0.2 0.5v0.6l-0.1 0.5v0.6l-0.2 0.5v4l-0.2 0.4v185.2l-0.3 1.5-0.5 0.9-0.9 1.4-1 0.8-1.7 1.5-0.4 0.3-3.1 2.2-2.4 1.4-1.5 1.1-1.3 0.8-2.2 1.5-1.4 0.8-2.2 1.5-1.2 0.8-2.2 1.5-1.4 0.8-2.2 1.5-1.3 0.8-2.3 1.5-1.2 0.8-2.2 1.5-1.3 0.8-2.3 1.5-1.2 0.8-2.3 1.5-1.3 0.8-0.7 0.5-2.1 1.2-2.1 0.7-0.8 0.2h-1.8l-1.3-0.3-0.8-0.4-0.5-0.4-0.3-0.3-0.4-0.7-0.3-0.4-0.3-1v-0.7l-0.2-0.5v-31.1l-0.1-0.5v-34.8l-0.1-0.5v-34.8l-0.1-0.5v-34.8l-0.2-0.5v-35l-0.1-0.4v-34.9l-0.1-0.5v-31.9l-0.1-0.5v-1.7l-0.1-0.4-0.1-1.8-0.7-3.9-1.3-3.9-1.4-3.3-1.2-1.9-0.5-0.9-0.4-0.4-1-1.4-0.4-0.4-1.8-1.9-2.6-2-2.5-1.3-2.2-0.8-2.5-0.4h-0.7l-0.5-0.1h-2.2l-0.8-0.2-0.5 0.2h-3.3l-0.5 0.1h-3.2l-0.5 0.1h-3.7l-0.5-0.1h-2.2l-1.6-0.3-1.4-0.6-1.8-1.2-1.1-1.2-0.8-1.2-0.5-1.4v-1.9l0.5-1.3 0.4-0.7 0.3-0.3 0.7-0.9 1.6-1.5 2.2-1.6 3.2-1.7 15.5-7.2 36.8-17.2 2.6-1 2.7-0.7 3.1-0.5h2l2.8 0.5 2.2 0.7 1.3 0.6 0.5 0.3 0.6 0.3 2.1 1.6 1.5 1.5 0.5 0.6 0.3 0.4 0.4 0.5 0.6 1 0.4 0.3 1.4 2.4 2.5 5.3 9.7 24.3 0.7 1.4 1.1 1 1.3 0.5h1l1.1-0.4 1.3-0.7 0.5-0.5 3.3-3.2 0.5-0.7 3.5-3.4 0.3-0.4 3.7-3.7 0.3-0.5 1.8-1.7 0.3-0.5 1.5-1.4 0.3-0.5 1.5-1.5 0.3-0.4 1.4-1.4 0.3-0.5 1.5-1.5 0.3-0.4 1.4-1.4 0.3-0.4 1.5-1.5 0.3-0.5 1.4-1.3 0.3-0.5 1.6-1.5 0.2-0.4 1.5-1.4 0.2-0.4 1.6-1.5 0.3-0.5 1.7-1.7 0.3-0.5 3.6-3.5 0.3-0.5 6.4-6.4 1.7-1.6 0.5-0.3 1.7-1.3 2.7-1.4 2.4-1 2.5-0.6 1.2-0.2h0.8l0.5-0.1h2.5l0.4 0.1 1.3 0.1 1.6 0.2 3.4 1 3.7 1.6 2.8 1.4 2.6 1.7 0.3 0.3 3 2.2 0.3 0.3 4.4 3.8 0.5 0.7 3.4 3.3 0.2 0.4 0.4 0.5 0.8 0.8 0.3 0.4 0.6 0.6 0.2 0.4 0.5 0.4 0.2 0.4 0.5 0.5 0.3 0.4 4.1 5.4 0.9 1.4 0.3 0.4 1.2 1.9 0.4 0.3 0.4 0.8 2.8 4.6 0.3 0.6 0.3 0.5 0.3 0.6 0.4 0.5 0.2 0.6 0.4 0.5 0.3 0.6 0.3 0.5 2.7 5.7 1.6 4.4 1.2 4.4 0.6 4.7v1.4l0.1 0.5v1.2l0.2 0.4v6.7l-0.2 0.5v3.1l-0.1 0.6v2.4l-0.1 0.5v2.2l-0.1 0.5v2.5l-0.1 0.4v1.3l-0.2 0.4v1.1l-0.1 0.5v1.1l-0.1 0.5v1.2l-0.1 0.5v1.1l-0.2 0.5v1.1l-0.1 0.5v1.2l-0.1 0.4v1.2l-0.1 0.4v1.1l-0.1 0.5v1.2l-0.2 0.5v1.1l-0.1 0.5v1.1l-0.1 0.5v1.2l-0.1 0.4v1.1l-0.1 0.6v1l-0.1 0.5v1.1l-0.2 0.5v1.2l-0.1 0.5v1.1l-0.2 0.5v1.1l-0.1 0.5v1.2l-0.1 0.5v1l-0.1 0.5v1.1l-0.1 0.5v1.2l-0.1 0.5v1.1l-0.1 0.5v1.1l-0.2 0.5v1.2l-0.1 0.4v1.2l-0.1 0.4v1.1l-0.1 0.5v1.2l-0.2 0.5v1.1l-0.1 0.5v1.1l-0.1 0.5v1.1l-0.1 0.5v1.2l-0.1 0.4v1.1l-0.2 0.5v1.1l-0.1 0.5v1.2l-0.1 0.5v1.1l-0.1 0.4v1.1l-0.2 0.5v1.2l-0.1 0.6v1.1l-0.1 0.4v1.1l-0.1 0.5v1.2l-0.1 0.5v1.1l-0.2 0.5v1.1l-0.1 0.5v1l-0.2 0.6v2.8l-0.1 0.4v1.1l-0.1 0.5v1.2l-0.2 0.5v1.1l-0.1 0.4v1.2l-0.2 0.5v2.7l-0.2 0.5v1.1l-0.1 0.5v1.2l-0.1 0.5v1.1l-0.1 0.5v1l-0.2 0.6v1.2l-0.1 0.5v1l-0.1 0.5v1.1l-0.1 0.5v1.1l-0.2 0.5v1.2l-0.1 0.5v1.1l-0.1 0.5v1l-0.1 0.5v1.2l-0.1 0.6v1l-0.1 0.5v1.1l-0.2 0.5v1.2l-0.1 0.5v1.1l-0.1 0.5v1.1l-0.1 0.4v1.2l-0.2 0.5v1.2l-0.1 0.4v1.1l-0.1 0.5v1.2l-0.1 0.5v1.1l-0.2 0.5v1l-0.1 0.5v1.1l-0.1 0.5v1.2l-0.1 0.5v1.1l-0.1 0.5v1.1l-0.2 0.5v1.2l-0.1 0.5v1.1l-0.1 0.5v1l-0.1 0.6v1.2l-0.2 0.4v2.7l-0.2 0.5v1.2l-0.1 0.5v1.1l-0.2 0.4v1.2l-0.1 0.4v2.8l-0.2 0.5v1.1l-0.1 0.5v1.1l-0.2 0.5v1.2l-0.1 0.4v1.2l-0.1 0.4v1.2l-0.1 0.4v1.2l-0.1 0.5v1.1l-0.1 0.5v1.1l-0.1 0.4v1.3l-0.2 0.5v1.1l-0.1 0.5v1.1l-0.1 0.4v1.3l-0.2 0.4v1.2l-0.1 0.4v1.1l-0.1 0.5v1.2l-0.1 0.5v1.1l-0.1 0.4v1.1l-0.1 0.5v1.1l-0.2 0.5v1.2l-0.1 0.5v1.1l-0.1 0.5v1.1l-0.1 0.5v1.2l-0.2 0.5v1.1l-0.1 0.4v1.1l-0.1 0.6v1.1l-0.1 0.5v1.1l-0.2 0.5v1.1l-0.1 0.5v2l0.5 0.4 0.5 0.3 2.5 0.2 5.6 0.9 1.4 0.1 1.4 0.3 1.6 0.6 0.4 0.3 0.2 0.2 0.3 0.4 0.2 0.3 0.5 1.5v0.6l0.1 0.5v2.2l-0.3 1.2-0.4 0.6-0.8 0.8-57.8 33.3-3.2 1.5-2.4 0.7-2.3 0.2-2-0.4-0.6-0.3-0.4-0.3-0.3-0.2-0.6-1.2-0.2-1v-2.9l0.1-0.5v-1.1l0.1-0.4v-1l0.1-0.5v-1.1l0.2-0.5v-0.9l0.1-0.5v-1.1l0.1-0.5v-1.1l0.1-0.5v-1l0.1-0.5v-1l0.1-0.5v-1l0.2-0.5v-1l0.1-0.6v-1l0.1-0.5v-1l0.1-0.5v-1.1l0.2-0.5v-0.9l0.1-0.5v-1.1l0.1-0.5v-1.1l0.1-0.5v-1l0.1-0.4v-1.1l0.2-0.5v-1l0.1-0.5v-1l0.1-0.6v-1l0.1-0.5v-1l0.1-0.5v-1.1l0.2-0.5v-0.9l0.1-0.5v-1.1l0.1-0.5v-1.1l0.1-0.5v-0.9l0.2-0.5v-2.6l0.2-0.5v-1.1l0.1-0.4v-1.1l0.2-0.5v-2.6l0.2-0.5v-0.9l0.1-0.5v-1.1l0.1-0.5v-1.1l0.1-0.5v-0.9l0.2-0.5v-1.1l0.1-0.5v-0.9l0.1-0.6v-1.1l0.2-0.4v-1.1l0.1-0.5v-1l0.1-0.5v-1l0.1-0.5v-1l0.1-0.5v-1.1l0.2-0.5v-1.1l0.1-0.5v-0.9l0.1-0.5v-1.1l0.1-0.5v-1.1l0.1-0.5v-0.9l0.2-0.5v-2.6l0.2-0.5v-1l0.1-0.6v-1l0.1-0.5v-1l0.2-0.5v-1.1l0.1-0.4v-1l0.1-0.5v-1.1l0.1-0.5v-1l0.1-0.5v-1l0.2-0.5v-1.1l0.1-0.5v-1l0.1-0.5v-1l0.2-0.5v-1.1l0.1-0.5v-0.9l0.1-0.6v-1l0.1-0.5v-1l0.1-0.5v-1.1l0.2-0.5v-2.5l0.1-0.5v-1.1l0.2-0.5v-1l0.1-0.4v-1.1l0.1-0.5v-1.1l0.2-0.5v-0.9l0.1-0.5v-1.1l0.1-0.5v-1l0.2-0.5v-1l0.1-0.5v-1.1l0.1-0.5v-1l0.1-0.5v-1l0.1-0.6v-0.9l0.2-0.5v-2.7l0.1-0.5v-0.9l0.2-0.5v-1.1l0.1-0.5v-0.9l0.2-0.6v-2.6l0.2-0.5v-1l0.1-0.5v-1l0.1-0.5v-1l0.1-0.5v-1.1l0.2-0.5v-1.1l0.1-0.5v-0.9l0.1-0.5v-1.1l0.2-0.5v-2.5l0.2-0.5v-1.1l0.1-0.5v-0.9l0.1-0.6v-1.1l0.1-0.4v-1l0.1-0.5v-1.1l0.2-0.4v-1.2l0.1-0.5v-0.9l0.2-0.5v-2.5l0.2-0.5v-1.1l0.1-0.5v-1.1l0.1-0.5v-1l0.1-0.4v-1.1l0.2-0.5v-1.1l0.1-0.5v-1l0.1-0.5v-1.1l0.1-0.4v-1l0.2-0.5v-1.1l0.1-0.5v-1.1l0.1-0.5v-0.9l0.1-0.5v-1.1l0.1-0.5v-0.9l0.1-0.5v-1.1l0.2-0.5v-1.1l0.1-0.5v-1l0.1-0.5v-1.1l0.1-0.4v-1l0.2-0.5v-1.1l0.1-0.4v-1.2l0.1-0.4v-1l0.1-0.5v-1.1l0.1-0.5v-1l0.2-0.4v-1.1l0.1-0.5v-1.1l0.1-0.5v-1l0.1-0.4v-1.1l0.2-0.5v-1l0.1-0.5v-1l0.1-0.6v-1l0.1-0.5v-1l0.1-0.5v-1.1l0.1-0.5v-0.9l0.2-0.5v-1.1l0.1-0.5v-1.1l0.1-0.5v-0.9l0.1-0.5v-1.2l0.1-0.4v-1l0.2-0.5v-1.1l0.1-0.4v-1.1l0.1-0.5v-1l0.1-0.5v-1.1l0.2-0.4v-1l0.1-0.5v-1.1l0.1-0.5v-4.1l-0.1-0.5v-1.6l-0.1-0.4v-0.9l-0.2-0.5v-0.8l-1.4-9.4-0.7-2.5-0.5-1.3-1.3-3.4-0.6-1-0.8-1.6-2.6-3.7-1.7-1.6-1.9-1.4-2-1.3-1-0.4-0.6-0.3-2.1-0.6-1.8-0.3h-3.5l-3.1 0.6-2.9 0.9-2.2 1-3.6 1.9-3.8 2.7-0.4 0.3-3.6 3.2-2.8 2.8-0.4 0.1-0.3 0.5-0.7 0.8-0.4 0.4-0.7 0.8-0.3 0.4-0.7 0.7-0.3 0.4-0.4 0.5-3.3 4.2-0.3 0.4m-833.6 247.2l-9.2 5-2.2 0.8-2.2 0.4h-1.8l-1.5-0.3-1.4-0.6-0.3-0.3-0.7-0.4-0.4-0.3-1.4-1.6-0.3-0.5-5-6.5-0.3-0.4-3.3-4.3-0.2-0.4-5.2-7-0.3-0.4-3.7-5.1-0.3-0.4-0.8-0.8-1.1-0.5-1-0.1-1 0.3-0.9 0.7-1.2 1.5-0.6 1.1-0.4 0.3-1.6 2-0.9 1.4-0.3 0.4-1.2 1.9-0.4 0.4-1 1.6-0.3 0.3-0.8 1.2-0.3 0.4-1.2 1.7-0.3 0.3-1.3 1.8-0.5 0.5-2.8 3.2-3.7 3.7-2.1 1.7-0.5 0.2-1.1 0.8-2.9 1.6-2.6 1-2.8 0.5h-0.7l-0.5 0.2h-0.7l-0.5 0.1h-0.7l-0.5 0.1h-1.1l-0.5 0.2h-3.3l-0.2 0.1h-1.4l-0.4-0.1h-3.1l-0.4-0.2h-1.4l-0.5-0.1h-0.7l-0.5-0.1h-0.7l-0.5-0.2h-0.8l-6.2-1-5.6-1.3-5.6-1.7-1.8-0.7-2.8-1-1.2-0.6-3-1.3-1.6-0.8-3.1-1.5-1-0.6-0.6-0.2-1-0.6-0.6-0.3-5.5-3.4-5-3.3-0.3-0.4-3.2-2.3-0.4-0.3-4-3.4-0.5-0.5-0.4-0.3-0.8-0.8-0.5-0.3-0.7-0.8-0.5-0.3-4.4-4.4-3.4-3.7-0.2-0.5-0.5-0.4-0.2-0.4-0.5-0.5-2.4-2.9-0.4-0.5-2.2-3-0.4-0.6-0.3-0.4-0.8-1.2-0.3-0.4-3.4-5.3-2.8-5-2.9-6-1.8-4.4-2-5.5-1.3-4.7-1.1-4.6-0.9-5.6v-0.6l-0.3-1.4v-0.7l-0.1-0.4v-0.9l-0.1-0.4v-1.8l-0.2-0.4v-9.5l0.2-0.5v-2.9l0.1-0.5v-1l0.1-0.5v-0.9l0.2-0.5v-0.8l0.9-5.7 0.9-3.9 1.4-4 1.3-3.1 0.4-0.5 0.7-1.6 0.6-0.9 1.2-2.1 2.1-2.9 0.4-0.5 1-1.3 0.6-0.6 0.3-0.4 0.7-0.7 0.3-0.4 4.6-4.5 3.4-3 0.4-0.3 0.5-0.5 3.3-2.6 0.5-0.3 2.9-2.3 0.5-0.3 7.7-5.5 8-5 6.2-3.7 5.1-3.1 1.7-0.7 0.9-0.6 2.8-1.4 0.9-0.6 3.1-1.5 0.9-0.5 2.9-1.4 0.9-0.6 2.8-1.3 0.9-0.6 2.9-1.4 0.9-0.6 3.1-1.4 0.9-0.6 6.6-3.3 0.9-0.6 3.1-1.5 0.9-0.5 1.7-0.8 2.9-2 0.4-0.3 1-0.6 1.6-1.7 0.9-1.5 0.5-1.3 0.2-1.1v-1.1l0.1-0.9-0.1-0.5v-0.7l-0.1-0.5-0.1-1.1-0.7-3.7-5.6-24-1.3-5.1-3.2-12.9-1.2-3.8-0.7-1.5-1-1.5-0.3-0.5-1-1-1.4-1-1.2-0.6-1.8-0.6-2.4-0.4h-1.6l-0.5-0.2h-73.4l-0.2-0.1 0.2-0.4 25.8-34 0.3-0.3 1.6-2.2 0.4-0.4 1.6-2.2 0.3-0.3 1.6-2.2 0.3-0.4 3-3.8 0.3-0.4 8.2-10.7v-0.3h8.3l0.5 0.1h11.8l0.5 0.1h11.9l0.5 0.2h24.3l0.4 0.2h11.8l0.5 0.1h11.9l0.5 0.1h1.4l1.3 0.5 0.7 0.6 0.5 0.7 0.5 1 1.6 6.7 33.1 149.9 20.7 95 1.6 5.1 2 4.8 0.7 1.3 2.1 4.6 0.6 1 0.5 0.8 0.8 1.3 1.1 2 1.2 1.6 0.7 1 0.2 0.4 1 1.6 0.4 0.3 0.5 0.9 0.3 0.3 5.8 7.7 0.2 0.5 2.6 3.5-12.7 7.5-7.4 4.5zm-52.2-64.6l-0.2-2-0.3-1.3-3.5-18.7-4-19.5-9.9-44.4-0.6-1.9-0.4-0.8-0.4-0.4-0.2-0.4-1.5-1.1-1.2-0.7-1.2-0.4-2.1-0.5h-2.5l-1.4 0.4-7.9 3.1-10.5 4.7-0.9 0.6-1.2 0.5-5.4 3.1-2.6 1.7-0.7 0.5-3.3 2.5-0.5 0.3-0.5 0.5-0.4 0.3-0.8 0.8-0.4 0.3-2.3 2.3-0.3 0.4-1.1 1.1-2.5 3.3-2.3 3.9-1.6 3.7-1.2 4.1-0.9 5.5v3l-0.2 0.4v2.6l0.2 0.4v2l0.1 0.5v0.7l0.1 0.5v0.6l0.1 0.5v0.7l1.2 6.5 1.9 7.4 2.5 6.8 3.4 7.5 0.3 0.5 0.3 0.6 0.5 0.9 0.3 0.7 0.4 0.5 0.2 0.6 0.6 0.9 0.3 0.7 4.2 6.7 4.2 5.8 0.4 0.3 0.2 0.4 0.5 0.5 0.3 0.4 0.6 0.6 0.3 0.4 0.4 0.4 0.3 0.4 0.6 0.6 0.3 0.4 0.5 0.5 0.3 0.5 0.4 0.4 0.3 0.5 4.6 4.7 0.7 0.8 6.6 6.3 0.5 0.4 5.9 5.2 0.4 0.4 2.4 1.8 0.4 0.4 0.7 0.4 1.8 1 2.8 0.9h2.3l1.5-0.6 1.1-0.5 0.3-0.3 0.9-0.6 1.9-1.8 0.6-0.8 0.4-0.4 1.2-1.7 0.4-0.4 0.7-1.2 0.3-0.3 1.3-2 0.3-0.4 1-1.5 0.3-0.4 3.3-5.1 0.8-1.3 0.8-1.6 0.9-1.7 2-4.6 0.9-2.7 0.6-3.5v-0.7l0.1-0.6zm1079.2 71.5h-4l-0.5-0.1h-2.2l-0.4-0.1h-0.8l-0.5-0.1h-0.8l-0.5-0.2h-1.1l-4.8-1.1-3.3-1.1-0.9-0.4-2-1-3.2-1.9-2.9-2.1-0.4-0.4-0.5-0.3-0.4-0.3-1.3-1.1-0.9-1-0.4-0.2-1.9-1.9-2.1-2.5-2.3-2.8-0.3-0.5-1.6-2.2-2.8-4.3-2.6-4.5-0.3-0.6-0.2-0.3-0.4-1-0.6-1.1-2.2-5.1-2.4-6.3-4.6-15.3-1.6-6.9-1-5.7-0.2-1.8-0.1-0.6-0.1-0.9-0.2-0.7-0.9-7.9v-1.1l-0.1-0.5v-1l-0.1-0.4v-1.4l-0.1-0.5v-3l-0.1-0.5v-3l-0.2-0.5v-3l-0.1-0.5v-2.2l0.1-0.5v-5.6l0.2-0.4v-4.4l0.1-0.5v-1.4l0.1-0.4v-1.2l0.1-0.6v-1.1l0.1-0.5v-1.3l0.2-0.5v-1.3l0.1-0.5v-1.2l0.1-0.4v-1l0.3-1.5v-0.6l0.2-1.4v-0.6l0.3-1.5v-0.6l0.2-1.5v-0.5l0.9-6.4 1.7-9.6 2.4-11.3 2.3-9.2 3.1-10.1 2.2-6.2 2.5-6.2 2.4-5.1 1.9-3.5 2.7-4.7 1.1-1.5 0.8-1.3 2.7-3.6 1.4-1.9 0.5-0.5 0.3-0.4 0.6-0.5 0.3-0.5 0.5-0.5 0.4-0.5 4.4-4.3 5-4.1 0.5-0.3 0.3-0.4 1.7-1.2 0.3-0.3 2.8-2 5.9-3.9 1.6-0.8 3.5-2.2 17.4-10.1 0.8-0.6 1.3-0.7 0.6-0.5 0.8-0.4 0.6-0.5 0.6-0.3 5.6-4.1 0.5-0.5 1.6-1.5 1.2-1.7 0.3-0.6 0.2-0.2 0.5-1.6 0.2-1-0.3-2.2-1-2.3-1.7-2.4-0.3-0.4-1.9-2-2.4-2.3-8.6-8-0.5-0.3-1.3-1.3-0.5-0.3-0.3-0.4-0.5-0.3-0.5-0.6-0.5-0.2-0.5-0.7-0.4-0.2-0.5-0.4-0.4-0.3-0.5-0.6-0.5-0.3-0.4-0.4-0.8-0.6-9.3-7.7-0.4-0.2-0.4-0.4-12.9-10.2-0.4-0.2-0.4-0.3-11.4-9-0.3-0.3-6.9-5.4-0.3-0.3-2.9-2.4-0.4-0.3-4.3-3.5-0.4-0.4-4.5-3.9-0.4-0.3-4.4-4.2-1.7-1.6-0.4-0.3-3.8-3.9-4.6-4.8-6.2-6.7-8.1-9-0.3-0.4-1.1-1.7-0.8-1.3-0.6-1.4-0.2-0.8-0.1-1.2 0.2-1.1 0.3-1 1-1.3 0.7-0.5 0.5-0.5 1-0.6 0.7-0.5 2.8-1.7 2.6-1.3 0.9-0.6 4.3-2.1 0.9-0.5 3.8-1.9 0.9-0.6 0.7-0.2 0.9-0.6 0.9-0.4 1-0.6 0.6-0.3 0.9-0.5 0.7-0.3 0.9-0.6 0.7-0.3 0.9-0.5 0.9-0.4 0.9-0.6 1.6-0.8 1.1-0.6 0.9-0.5 4-2 0.9-0.6 1.6-0.7 1-0.6 1.5-0.8 1-0.6 8.9-4.3 5.5-2.5 1.8-0.3 2.2 0.1 2.1 0.6 1.7 0.9 0.4 0.3 1 0.8 1.2 1.4 0.7 1.9v1.6l-0.5 1.7-0.9 1-0.7 0.5-2.9 3-1.2 1.5-1.2 2-0.5 1.3-0.1 0.8 0.6 1.2 1.8 2.6 0.3 0.4 1.3 1.8 0.4 0.4 0.3 0.5 0.5 0.4 1.7 2.1 0.4 0.4 0.3 0.5 1.5 1.4 0.2 0.4 4 3.9 4.2 3.9 5.3 4.5 0.4 0.2 0.4 0.4 7.8 6.2 0.5 0.2 5.7 4.4 0.5 0.2 2.7 2.1 0.4 0.3 8.9 6.3 0.5 0.3 13 9.4 0.5 0.4 11.2 9.4 0.3 0.3 5.6 4.9 0.4 0.5 0.5 0.2 1 1.1 0.4 0.3 0.9 0.9 0.5 0.3 1.6 1.7 0.4 0.2 2.9 2.9 0.4 0.3 1.5 1.5 4.9 5.1 0.3 0.5 0.8 0.7 0.3 0.6 0.8 0.7 0.3 0.5 0.7 0.6 0.3 0.4 0.4 0.4 0.3 0.5 0.5 0.4 3.8 4.8 0.3 0.5 3.9 5.2 0.7 1.3 0.5 0.6 0.4 0.7 0.4 0.6 0.4 0.8 0.5 0.6 0.4 0.7 0.3 0.5 0.3 0.6 0.3 0.5 0.3 0.7 0.6 0.9 0.2 0.6 0.4 0.4 0.3 0.7 0.5 0.9 3.3 7.4 0.8 2.4 0.7 1.9 0.7 2.2 1.6 6.9 0.3 2.5 0.2 0.7 0.2 1.7 0.2 0.8 0.3 4v3.1l0.1 0.5v3.7l-0.1 0.4v24.8l-0.1 0.5v24.7l-0.1 0.5v24.8l-0.1 0.5v24.7l-0.1 0.5v24.7l-0.2 0.5v24.8l-0.1 0.5v22.3l-0.8 5-0.9 3.6-1 3.4-1.2 2.9-1.4 2.5-1.7 2.7-0.3 0.3-1.5 2-0.7 0.6-0.3 0.4-2 2-2.2 1.9-0.5 0.3-2.2 1.6-3.7 2.4-3.9 2-5.2 2.4-2.9 1.3-14.9 5.6-37.1 13.4-8 2.3-3.4 0.7-2.8 0.4h-1.2l-0.5 0.1h-2.4zm0-66.1l1.2 6.9 1 4.5 1.5 4.3 2 4.2 2.6 3.9 3 3.7 1.6 1.7 2.3 1.8 2 1.2 3.5 1.4 2.6 0.4h3.4l0.5-0.2 1.5-0.2 3.3-1.1 3-1.6 0.3-0.4 1.2-0.7 0.4-0.3 0.5-0.3 1.5-1.5 1-0.8 0.3-0.5 0.5-0.5 0.7-0.8 0.3-0.4 1.4-2 1.4-3.3 1.1-3.6 0.8-4.9v-0.9l0.1-0.5v-1l0.1-0.5v-1.4l0.2-0.5v-2.3l0.1-0.5v-16.2l0.1-0.6v-21.8l0.1-0.5v-21.9l0.1-0.5v-22l0.2-0.5v-21.8l0.1-0.5v-21.9l0.1-0.6v-21.8l0.1-0.4v-1l-0.1-0.5v-2.3l-0.2-1.9-0.6-3-0.6-2-0.9-1.8-0.8-1.4-1.6-1.6-1.4-0.8-1.9-0.6h-2.1l-1.1 0.2-2.9 0.8-2.9 1.5-1.9 1.1-1.3 0.8-1.5 1.2-2 2-0.2 0.4-0.5 0.4-0.2 0.5-0.5 0.3-0.3 0.5-0.4 0.4-2.9 4-2.5 4.5-1.2 2.4-2.1 4.8-0.9 2.7-1.4 4.5-3.6 16.4-3.3 17.3-0.1 0.9-0.6 3.6-0.1 0.8-0.3 1.5-1.4 9.2-0.1 1.3-1 7.2-0.3 3.3-0.3 1.3v0.9l-0.1 0.5v0.8l-0.2 0.5v0.8l-0.1 0.5v0.9l-0.1 0.5v0.8l-0.1 0.5v0.9l-0.1 0.4v0.9l-0.1 0.5v0.8l-0.2 0.5v0.9l-0.1 0.4v0.8l-0.1 0.6v0.8l-0.2 0.5v3.2l-0.1 0.4v1.6l-0.2 0.5v1.6l-0.1 0.5v2.2l-0.2 0.5v3.2l-0.1 0.5v6.9l-0.1 0.5v3l0.1 0.5v5.1l0.1 0.5v2.4l0.2 0.5v1.7l0.1 0.5v1.8l0.2 0.5v1.3l0.1 0.5v2.2l0.2 0.5v0.9l0.5 4.2 0.1 0.7 0.2 1.7 0.2 0.7 0.2 1.8 0.2 0.7z"/><path fill-rule="evenodd" class="a" d="m934.4 371.5l-13.6 6.3-54.2 23.3-2.4 0.9-1.5 0.3-2-0.1-0.7-0.2-0.6-0.5-0.5-0.9-0.2-1.5v-1.2l0.1-0.5v-0.9l0.2-0.5v-0.9l0.1-0.4v-0.9l0.1-0.5v-0.9l0.1-0.6v-0.8l0.2-0.5v-1l0.1-0.4v-0.9l0.1-0.4v-1.1l0.1-0.4v-0.9l0.1-0.5v-0.8l0.2-0.5v-1l0.1-0.5v-0.8l0.1-0.5v-1l0.1-0.4v-0.9l0.1-0.5v-0.9l0.1-0.6v-0.8l0.1-0.5v-0.8l0.2-0.5v-1l0.1-0.5v-0.8l0.1-0.5v-1l0.2-0.4v-2.3l0.2-0.5v-0.9l0.1-0.5v-0.8l0.1-0.5v-1l0.2-0.5v-0.8l0.1-0.5v-1l0.1-0.5v-0.8l0.1-0.5v-0.9l0.1-0.4v-1l0.2-0.5v-0.9l0.1-0.4v-1l0.1-0.5v-0.8l0.1-0.5v-0.9l0.2-0.4v-1l0.1-0.5v-0.8l0.1-0.5v-1l0.1-0.5v-0.8l0.1-0.5v-1l0.2-0.5v-0.8l0.1-0.5v-0.9l0.1-0.5v-0.9l0.1-0.5v-0.9l0.2-0.5v-0.9l0.1-0.5v-0.9l0.1-0.4v-1l0.1-0.5v-0.8l0.2-0.5v-0.9l0.1-0.5v-0.9l0.1-0.5v-0.9l0.1-0.5v-0.9l0.1-0.5v-0.9l0.2-0.4v-1l0.1-0.5v-0.8l0.1-0.5v-0.9l0.1-0.5v-1l0.1-0.4v-0.9l0.1-0.4v-1l0.2-0.5v-0.9l0.1-0.4v-1l0.1-0.5v-0.9l0.2-0.4v-0.9l0.1-0.5v-0.9l0.1-0.5v-0.9l0.1-0.5v-1l0.1-0.4v-0.9l0.1-0.4v-1l0.2-0.5v-0.9l0.1-0.4v-0.9l0.1-0.5v-1l0.1-0.4v-0.9l0.2-0.4v-1l0.1-0.5v-0.9l0.1-0.5v-0.9l0.1-0.5v-0.9l0.1-0.5v-0.8l0.1-0.5v-1l0.2-0.4v-0.9l0.1-0.5v-1l0.1-0.4v-0.8l0.2-0.6v-0.8l0.1-0.5v-1l0.1-0.5v-0.8l0.1-0.5v-1l0.1-0.4v-0.9l0.2-0.5v-1l0.1-0.4v-0.9l0.1-0.5v-0.9l0.1-0.4v-1l0.1-0.5v-0.8l0.2-0.5v-1l0.1-0.4v-0.9l0.1-0.5v-1l0.1-0.5v-0.8l0.1-0.5v-0.8l0.2-0.5v-1l0.1-0.4v-0.9l0.1-0.5v-1l0.1-0.5v-0.8l0.2-0.5v-0.9l0.1-0.5v-0.9l0.1-0.5v-0.8l0.1-0.5v-1l0.1-0.5v-0.8l0.1-0.6v-0.9l0.2-0.5v-0.8l0.1-0.5v-0.9l0.1-0.6v-0.8l0.1-0.5v-0.8l0.1-0.5v-1l0.2-0.5v-0.9l0.1-0.4v-1l0.1-0.5v-0.8l0.1-0.5v-1l0.2-0.4v-0.9l0.1-0.5v-0.8l0.1-0.5v-1l0.1-0.5v-0.9l0.1-0.4v-1l0.2-0.5v-0.8l0.1-0.5v-0.9l0.1-0.4v-1l0.1-0.5v-0.9l0.2-0.4v-1l0.1-0.5v-0.8l0.1-0.6v-0.9l0.1-0.5v-0.9l0.1-0.5v-0.8l0.2-0.4v-1l0.1-0.5v-0.9l0.1-0.5v-0.9l0.1-0.5v-0.8l0.1-0.6v-0.9l0.2-0.5v-0.8l0.1-0.5v-0.9l0.1-0.5v-0.9l0.1-0.5v-0.9l0.1-0.5v-0.9l0.2-0.5v-0.9l0.1-0.4v-1l0.1-0.5v-0.9l0.1-0.4v-0.9l0.1-0.5v-0.9l0.2-0.5v-0.9l0.1-0.5v-0.9l0.1-0.5v-0.9l0.1-0.5v-0.9l0.2-0.5v-0.9l0.1-0.4v-0.9l0.1-0.5v-1l0.1-0.4v-0.9l0.1-0.5v-0.9l0.2-0.5v-0.9l0.1-0.5v-0.9l0.1-0.5v-0.8l0.1-0.6v-0.8l0.2-0.5v-0.9l0.1-0.5v-0.9l0.1-0.5v-0.9l0.1-0.5v-0.9l0.1-0.5v-0.8l0.2-0.5v-0.9l0.1-0.5v-3.7l-1-6.3-0.1-0.9-0.1-0.7-0.1-0.9-1.5-7.4-1.6-6.4-1.4-3.7-1.6-3.4-1-1.8-1.3-2.1-0.4-0.5-1.1-1.5-2.4-2.3-2.3-1.6-2.7-1.2-2.6-0.7h-0.7l-0.5-0.1h-0.9l-0.5-0.1h-2.5l-0.5 0.1h-1l-2.4 0.4-2.4 0.8-2.7 1.1-0.9 0.5-1.9 1-3.6 2.7-2 1.7-1.1 1.2-0.5 0.3-1.2 1.2-2.6 3-2.6 3.5-2.2 3.5-2 3.6-1.2 2.8-1 2.6-0.8 3-0.6 2.9v0.8l-0.1 0.5v2.2l-0.1 0.5v57.6l-0.1 0.6v57.4l-0.1 0.5v57.5l-0.2 0.5v23.1l-0.1 0.5-0.1 1-0.3 0.9-0.7 1.3-1.2 1.3-2.9 2.1-1.2 0.7-0.8 0.6-1.3 0.7-0.8 0.6-1.3 0.8-0.8 0.5-1.2 0.8-0.8 0.6-1.3 0.8-0.8 0.5-1.2 0.8-0.7 0.5-0.7 0.3-1.1 0.9-1.3 0.7-0.8 0.6-1.3 0.8-0.8 0.5-1.3 0.8-0.7 0.6-1.3 0.7-0.8 0.6-1.3 0.8-0.8 0.5-1.3 0.8-0.6 0.4-0.7 0.4-1.1 0.8-1.3 0.8-0.8 0.6-1.3 0.7-0.7 0.6-1.3 0.8-0.8 0.6-1.3 0.7-0.7 0.6-1.3 0.8-0.6 0.4-0.8 0.4-1.1 0.8-1.3 0.8-0.5 0.3-1.8 0.8-0.9 0.3-1.3-0.1-0.7-0.3-0.6-0.5-0.4-0.7-0.2-0.7-0.1-0.9v-12.1l-0.1-0.5v-33.4l-0.2-0.5v-33.7l-0.1-0.5v-33.8l-0.1-0.5v-33.8l-0.1-0.4v-33.9l-0.1-0.5v-33.7l-0.2-0.5v-16.1l-0.1-0.5-0.1-1.5-2.3-9-1.1-3.3-1.4-3.8-0.4-0.9-0.5-0.9-0.8-1.3-0.4-0.7-1.3-1.8-0.4-0.4-0.9-1.1-1.5-1.3-2.3-1.4-2.1-0.7-1.5-0.3h-2.6l-2.6 0.4-1.6 0.6-0.5 0.4-1.3 0.7-3.8 2.6-0.5 0.4-2.8 2.2-0.3 0.5-2.9 2.9-0.3 0.5-2.4 3-1.1 2-1.1 1.7-2 4.7-1.3 5-0.2 1.3-0.3 2.3v208.2l-2.2 1.3-41.5 25-3.8 1.8-1.8 0.6-1.2 0.1-1.4-0.3-1.3-0.9-0.7-1.1-0.2-1.1v-233.6l-0.1-0.5v-0.7l-0.2-0.5v-0.6l-0.3-1.9-1.8-5.3-2-6.6-1.3-3.3-0.3-0.4-0.8-1.6-1.8-2.6-0.5-0.5-1.6-1.7-2.8-2.2-3.2-1.8-4.6-1.4-3.8-0.7h-1.2l-0.4-0.1h-1.5l-0.5-0.1h-5.3l-0.5-0.1-1.5-0.1-1.9-0.7-1.2-0.9-0.9-1.3-0.4-1.2v-0.6l-0.2-0.9 0.2-0.5 0.1-1.1 0.4-1.3 0.7-1 0.4-0.6 0.4-0.3 0.6-0.6 0.5-0.2 0.3-0.4 1.3-0.9 28.6-14.2 0.9-0.6 1.4-0.6 0.9-0.6 1.4-0.7 0.9-0.6 1.7-0.7 0.9-0.6 1.4-0.6 0.9-0.6 0.6-0.3 1.8-1 4.8-2.7 9.8-6.1 2-0.8 2.2-0.6 1.8-0.1 1.8 0.4 1.1 0.5 1.7 1.5 0.4 0.3 2.1 1.8 0.8 0.9 2.8 2.9 0.3 0.5 0.3 0.3 1.7 2.1 0.2 0.5 2.7 3.8 3.3 5.6 2.5 4.9 4.6 9.2 1.3 2 1.2 1.1 0.8 0.3 0.9-0.1 0.9-0.5 0.4-0.3 2.5-2.1 0.4-0.6 0.5-0.3 7.2-7.1 0.5-0.4 7.1-7.2 0.5-0.3 3.6-3.6 3.1-3 0.5-0.3 3-3.1 0.5-0.3 3-3.1 0.5-0.3 3.6-3.6 0.4-0.3 0.4-0.4 0.8-0.6 1.8-1.1 5.2-2.5 2.9-0.9 3.2-0.7 2.3-0.2h2.4l3.3 0.6 3.3 1.2 2.3 1.3 2.3 1.5 0.3 0.4 1.4 1.1 0.5 0.4 4.5 4.3 0.3 0.5 1 1 0.3 0.4 1.2 1.2 0.3 0.4 0.6 0.6 0.3 0.5 0.5 0.5 3.4 4.1 0.6 0.8 1.2 1.7 0.3 0.4 6.9 9.3 0.3 0.4 2 2.7 0.3 0.4 1 1.3 0.3 0.3 4.3 5.4 0.7-0.5 0.4-0.4 0.5-0.3 0.5-0.6 0.4-0.3 0.6-0.5 0.9-0.9 0.5-0.3 0.5-0.5 0.5-0.3 0.5-0.6 0.4-0.3 0.5-0.6 0.5-0.2 0.5-0.5 0.5-0.4 0.5-0.5 0.4-0.3 0.5-0.6 0.5-0.3 0.5-0.5 0.4-0.3 0.6-0.6 0.4-0.3 0.6-0.5 0.4-0.3 0.5-0.6 0.5-0.3 0.5-0.5 0.4-0.3 0.6-0.6 0.4-0.3 0.6-0.5 0.4-0.3 0.5-0.6 0.4-0.3 0.6-0.6 0.4-0.2 0.5-0.6 0.5-0.3 0.5-0.5 0.5-0.3 0.5-0.6 0.4-0.3 0.6-0.5 0.4-0.3 0.5-0.6 0.5-0.2 0.5-0.6 0.4-0.3 0.6-0.6 0.4-0.2 0.5-0.6 0.4-0.3 0.6-0.6 0.4-0.3 0.6-0.5 0.4-0.3 0.6-0.6 0.4-0.3 0.5-0.5 0.5-0.3 0.5-0.6 0.4-0.3 0.6-0.5 0.5-0.3 0.4-0.6 0.5-0.3 0.5-0.5 0.5-0.3 0.5-0.5 0.4-0.3 0.5-0.6 0.5-0.3 0.5-0.6 0.5-0.2 0.5-0.6 0.4-0.3 0.5-0.6 0.5-0.3 0.5-0.5 0.5-0.3 0.5-0.6 0.5-0.3 0.5-0.5 0.4-0.3 0.4-0.4 0.8-0.6 2.9-2.2 3.6-2.1 3.8-1.5 3.7-0.9h0.9l0.5-0.1h1.1l0.5-0.1h3l1.3 0.2 1 0.1 3.1 0.8 2.7 1.1 0.9 0.6 1.4 0.7 0.6 0.5 0.7 0.4 3.9 2.7 0.3 0.3 3.4 2.6 0.5 0.6 0.5 0.3 0.5 0.5 0.5 0.3 0.5 0.5 0.4 0.3 0.6 0.6 0.4 0.3 4.3 4.3 3.7 4.3 0.3 0.5 2.8 3.5 0.3 0.7 0.4 0.3 2.9 4.6 2.8 4.8 2.4 5.1 1.9 4.6 1.2 3.2 0.2 0.4 1.8 6.4 1.3 6.1 0.1 0.9 0.5 2.9v0.8l0.2 0.5v0.7l0.1 0.5v0.7l0.1 0.5v0.8l0.1 0.5v2.6l0.1 0.5v2.9l-0.1 0.5v1l-0.1 0.5v0.8l-0.1 0.5v0.8l-0.1 0.5v0.9l-0.2 0.5v0.9l-0.1 0.5v0.9l-0.1 0.5v0.8l-0.2 0.5v0.8l-0.1 0.5v1l-0.1 0.5v0.8l-0.1 0.5v0.9l-0.2 0.4v2.4l-0.2 0.5v0.8l-0.1 0.5v0.8l-0.1 0.5v0.9l-0.2 0.5v0.9l-0.1 0.5v0.8l-0.1 0.5v0.9l-0.1 0.5v0.8l-0.2 0.5v2.3l-0.2 0.5v0.9l-0.1 0.5v0.9l-0.1 0.5v0.9l-0.2 0.4v0.9l-0.1 0.5v2.3l-0.2 0.4v0.9l-0.1 0.5v0.8l-0.2 0.5v0.8l-0.1 0.6v0.9l-0.1 0.5v0.8l-0.1 0.6v0.8l-0.1 0.5v0.8l-0.2 0.5v1l-0.1 0.5v0.8l-0.1 0.5v0.8l-0.1 0.6v0.8l-0.2 0.5v0.9l-0.1 0.5v0.9l-0.1 0.5v0.8l-0.1 0.5v1l-0.1 0.5v0.8l-0.2 0.5v0.8l-0.1 0.5v0.9l-0.1 0.5v0.9l-0.1 0.5v0.9l-0.1 0.4v0.9l-0.2 0.5v0.8l-0.1 0.5v1l-0.1 0.5v0.8l-0.1 0.5v0.9l-0.1 0.5v0.8l-0.2 0.5v0.9l-0.1 0.5v0.9l-0.1 0.5v0.8l-0.1 0.5v0.9l-0.2 0.5v0.9l-0.1 0.5v0.8l-0.1 0.5v0.9l-0.1 0.5v0.8l-0.1 0.5v1l-0.1 0.5v0.8l-0.2 0.5v0.8l-0.1 0.6v0.9l-0.1 0.5v0.8l-0.2 0.6v2.1l-0.2 0.5v1l-0.1 0.4v0.9l-0.1 0.5v0.8l-0.2 0.5v0.8l-0.1 0.5v1l-0.1 0.5v0.9l-0.1 0.4v0.9l-0.1 0.5v0.9l-0.1 0.4v1l-0.2 0.5v0.8l-0.1 0.5v0.8l-0.1 0.5v0.9l-0.1 0.5v1l-0.2 0.4v0.9l-0.1 0.4v0.9l-0.1 0.5v1l-0.1 0.5v0.8l-0.1 0.5v0.9l-0.2 0.4v0.9l-0.1 0.5v0.9l-0.1 0.5v0.9l-0.1 0.4v0.9l-0.1 0.5v0.9l-0.2 0.4v1l-0.1 0.5v0.8l-0.1 0.5v0.9l-0.1 0.4v0.9l-0.2 0.5v0.9l-0.1 0.5v0.9l-0.1 0.5v0.8l-0.1 0.5v0.9l-0.2 0.4v1l-0.1 0.5v0.8l-0.1 0.6v0.8l-0.1 0.5v0.9l-0.1 0.5v0.9l-0.1 0.5v0.8l-0.2 0.5v0.9l-0.1 0.4v1l-0.1 0.5v0.8l-0.1 0.5v0.8l-0.2 0.5v0.9l-0.1 0.5v0.9l-0.1 0.5v0.9l-0.1 0.5v0.8l-0.1 0.5v0.8l-0.1 0.5v1l-0.2 0.5v0.8l-0.1 0.6v0.8l-0.1 0.5v0.8l-0.1 0.5v1l-0.2 0.5v0.8l-0.1 0.5v0.8l-0.1 0.5v1l-0.1 0.5v0.8l-0.1 0.5v0.9l-0.2 0.5v0.8l-0.1 0.5v1l-0.2 0.4v2.3l-0.1 0.4v0.9l-0.2 0.4v1.1l-0.1 0.4v0.8l-0.1 0.5v0.9l-0.1 0.5v0.8l-0.2 0.5v1l-0.1 0.4v0.9l-0.1 0.5v0.9l-0.2 0.4v2.3l-0.2 0.5v0.9l-0.1 0.5v0.8l-0.1 0.5v3.1l0.4 2.6 0.7 1.8 0.6 0.8 0.8 0.6 0.9 0.4 2.5 0.3 0.5 0.1h0.6l0.5 0.1h0.6l7.3 1.2 1.2 0.4 0.9 0.7 0.8 1.2 0.5 1.4-0.1 1.4-0.2 0.8-0.4 0.4-0.5 0.6m-855.1 13.3l-43.1 15.7-0.2 0.1-0.2-0.3v-33.6l-0.1-0.5v-37.5l-0.1-0.4v-37.7l-0.1-0.4v-37.4l-0.1-0.5v-37.2l-0.2-0.4v-37.6l-0.1-0.5v-33.5l-0.1-0.5-0.1-1.7-0.5-2.1-1-2.6-0.6-1.3-0.5-0.9-0.4-0.8-1.4-1.8-0.2-0.4-1.2-1.2-2.5-1.9-2.7-1.5-2.1-0.7-2.6-0.5h-4.4l-0.4-0.2h-4.9l-0.5-0.1h-4.8l-0.5-0.1h-2.3l-0.5-0.2-1.3-0.9-0.9-1.1-0.6-1.2v-1.8l0.3-1.2 0.8-1.2 1.1-1.1 2.6-1.5 54.1-32.7 1.9-1 1.7-0.6 1.3-0.3 1-0.1h3.1l2.6 0.4 2.3 0.7 3.7 1.9 3.6 2.4 0.5 0.4 2.5 2.1 2.6 2.7 1.7 2.1 0.4 0.7 0.3 0.3 2 3.2 0.6 1.4 0.6 0.8 3.9 8.8 3.2 8.1 2.2-1.4 0.4-0.3 1.5-1 0.4-0.3 1.6-1.1 0.4-0.3 1.5-1 0.4-0.3 1.9-1.3 0.4-0.3 1.6-1 0.3-0.3 1.7-1.1 0.3-0.2 1.6-1.1 0.3-0.3 2-1.3 0.3-0.3 1.6-1 0.4-0.3 1.6-1.1 0.3-0.2 1.6-1.1 0.4-0.3 1.9-1.2 0.4-0.3 1.6-1.1 0.3-0.4 1.6-0.9 0.4-0.3 1.5-1.1 0.4-0.3 1.9-1.2 0.4-0.4 1.5-1 0.5-0.3 1.5-1 0.4-0.4 1.5-0.9 0.4-0.4 2-1.2 0.3-0.3 1.6-1.1 0.4-0.3 1.5-1 0.5-0.3 4.3-2.8 2.1-1 2.2-0.6h1.5l0.4-0.1h1.4l1.3 0.3 1.7 0.2 3.5 1.1 3.4 1.6 3.3 2 2.6 1.8 0.3 0.3 2.4 1.9 0.4 0.5 0.4 0.3 0.9 0.9 0.4 0.3 3.8 3.8 2.8 3.1 0.3 0.4 0.4 0.5 2.3 2.8 0.3 0.5 0.3 0.4 3.1 4.2 0.2 0.5 1.5 2.1 2.9 4.9 0.3 0.7 0.3 0.4 2.4 4.8 4.2 9.3 3.5 9.3 2.9 8.3 2.6 9.5 2.1 8.8 1.6 9.1 0.4 3.3 0.7 5.2v1.3l0.1 0.5v1.4l0.2 0.5v1.4l0.1 0.5v1.3l0.1 0.5v10l-0.1 0.5v1.1l-0.1 0.5v1.2l-0.2 0.5v0.7l-0.7 5.6-1 4.6-1.4 4.5-1.6 4.1-1.7 3.3-2 3-0.3 0.3-1 1.4-0.5 0.4-0.3 0.4-1.1 1.2-0.3 0.4-0.5 0.3-0.4 0.4-0.4 0.3-0.5 0.6-0.5 0.2-0.4 0.5-2.4 1.5-0.3 0.3-1.3 0.8-10.2 6.3-0.7 0.5-1.3 0.9-1.1 0.7-1.3 0.8-5.6 3.9-0.4 0.3-0.8 0.5-0.4 0.4-2.3 1.6-0.3 0.3-3.7 2.8-0.4 0.5-0.5 0.3-0.3 0.4-0.5 0.3-0.4 0.4-0.4 0.3-0.5 0.5-0.4 0.2-0.4 0.5-0.4 0.3-1.5 1.5-1.2 1.7-0.8 1.6-0.4 1.9v2.3l0.1 1.8 0.7 2.9 2.9 8.5 2.9 7 3.5 7.3 3 5.9 0.6 1 0.3 0.6 0.5 0.9 0.3 0.6 0.3 0.5 0.4 0.9 0.8 1.3 3.5 6 5.8 9.3 2.9 4.5 0.3 0.4 2.5 3.8 0.3 0.3 2.2 3.4 0.3 0.4 1.8 2.6 0.3 0.4 8.6 12.1 0.3 0.4 1.9 2.7 0.3 0.3 2.4 3.5 0.4 0.4 2.4 3.5 0.4 0.4 8.7 12.3 0.4 1.4 0.3 0.6 0.2 1v1.7l-0.5 1.5-0.8 1.4-1.1 1.1-1 0.7-0.8 0.4-12 8.1-1.3 0.8-5.5 3.5-7.8 4.3-1.5 0.5-1 0.2h-2.3l-0.2 0.1h-1.8l-0.5-0.1-1.8-0.1-4.4-0.8-4-1.5-1.7-0.8-0.9-0.4-3.5-2.2-2.8-2.1-0.4-0.4-0.4-0.3-0.4-0.4-0.5-0.3-0.5-0.6-0.4-0.2-0.5-0.5-0.4-0.3-0.9-0.9-0.5-0.3-1.7-1.8-0.4-0.3-2.3-2.4-3.8-4-0.3-0.4-0.4-0.5-3.4-4.2-4.2-5.6-0.5-0.6-0.3-0.4-0.5-0.9-1.2-1.6-0.5-0.8-0.3-0.4-5.1-7.9-1.3-2.1-2.1-3.5-4.4-7.8-0.2-0.6-0.4-0.5-0.4-0.9-0.6-0.9-0.2-0.7-0.6-0.9-0.3-0.7-0.5-0.9-0.4-0.6-0.8-1.6-0.6-0.9-0.3-0.7-0.5-0.9-8.3-16.7-11.4-24.2-0.1-0.4-0.9-1.1-0.8-0.7-1.3-0.5-0.7 0.1-1.1 0.4-0.9 0.9-0.5 1.1-0.1 1.3v78.8l-0.5 1.5-0.7 1.5-1.1 1.4-1.1 1-1.4 0.9-3.5 1.5zm17.7-142.7l0.4 1.9 0.8 1.6 0.9 1.4 1.1 1 0.4 0.4 2.1 1.2 2.2 0.7 2.9 0.6 1.7 0.1 0.5 0.1h2l0.5 0.1h24.1l0.3-0.1h0.5l1.6-0.4 2.2-1 2.2-1.5 0.4-0.3 1-0.7 2.9-2.9 2-2.4 0.4-0.4 2.1-3.3 0.4-0.9 0.8-1.7 0.9-2.6 0.4-2.2v-0.7l0.1-0.5v-0.7l0.2-0.5v-0.7l0.1-0.5v-0.6l0.1-0.5v-0.8l0.1-0.4v-0.7l0.1-0.5v-1.1l0.2-0.5v-1.1l0.1-0.5v-1.1l0.1-0.5v-0.9l0.1-0.5v-1.2l0.1-0.5v-1.9l0.2-0.5v-2l0.1-0.5v-2.5l0.1-0.5v-5.5l0.1-0.3-0.1-0.4v-7.6l-0.1-0.5v-2.7l-0.1-0.5v-2.3l-0.2-0.5v-1l-0.1-0.5v-1.1l-0.1-0.5v-1.1l-0.1-0.5v-1l-0.1-0.4v-1.2l-0.2-0.4v-1.1l-0.1-0.5v-1.1l-0.1-0.5v-1.1l-0.1-0.5v-0.9l-0.1-0.5v-0.6l-0.2-0.5-0.1-1.4-0.8-3.8-1.9-6-2.2-5.4-3.4-7.3-0.3-0.5-2.8-4.9-3.6-5.6-1.3-1.8-0.4-0.4-0.2-0.4-2.1-2.5-2.7-2.7-1.6-1.5-0.3-0.3-1.9-1.3-2-1.1-2.3-0.7-1.1-0.1-0.5-0.1-3.9 0.4-1.1 0.3-0.8 0.5-0.9 0.7-1.8 1.7-2.3 2.8-0.4 0.3-3.3 4.5-0.4 0.7-1.3 1.9-3.8 6.2-0.3 0.7-0.4 0.5-0.2 0.6-0.6 0.9-0.3 0.6-0.6 1-2.4 5.1-1.1 2.9-0.4 2.7z"/></svg>