<svg version="1.2" xmlns="http://www.w3.org/2000/svg" viewBox="0 0 1548 1254" width="1548" height="1254"><style>.a{fill:#ee334b}</style><path fill-rule="evenodd" class="a" d="m0.6 1252c0 0 82.9-27.2 89.3-104.6q0.9-16.5 0.9-36.4v-201.7c0 0-18.5-235.5 219.9-268.4 15-2.3 147.4-20.5 226-14.8 0 0-213.8 35-214.4 174l-0.3-5.2v205.7c0 0 6.1 249.6-256.1 252.2v-0.2c-16.7 0.8-48 0.8-65.3-0.6zm307.5-689.7c-74.8-20-211.3-64.5-210.4-274.2 0.9-235.5 193.1-277.1 245.4-284.1 13-1.7 28-3.4 43.6-3.4h150c0 0-191.6 7.8-230.3 161.8v-0.3c-13.9 73.1-20 146.8-0.3 250.2 40.2 152.3 230.6 172.5 230.6 172.5-136.7-0.3-228.6-22.5-228.6-22.5zm662.7 648.4h-393.6c0 0 80-13.9 85.8-90.8v-1028.3c-5.8-77.2-85.8-91-85.8-91h393.6c0 0-82.9 14.7-84.4 97.6v1014.8c1.5 82.9 84.4 97.7 84.4 97.7zm511.9 41.9v0.2c-262.2-2.6-256.1-252.2-256.1-252.2v-205.7l-0.6 5.2c-0.3-139-214.1-174-214.1-174 78.6-5.7 210.9 12.5 226 14.8 238.1 32.9 219.9 268.4 219.9 268.4v201.7c0 13.3 0.3 25.4 0.6 36.4 6.6 77.4 89.6 104.6 89.6 104.6-17.4 1.4-48.6 1.4-65.3 0.6zm-470.8-667.8c0 0 190.4-20.2 230.6-172.5 19.6-103.4 13.3-177.1-0.3-250.2v0.3c-38.7-154-230.3-161.8-230.3-161.8h150c15.3 0 30.6 1.7 43.6 3.4 52.3 7 244.5 48.6 245.4 284.1 0.8 209.7-135.6 254.2-210.7 274.2 0 0-91.6 22.2-228.3 22.5z"/></svg>